<svg class="animated" id="freepik_stories-internet-day" xmlns="http://www.w3.org/2000/svg" viewBox="0 0 500 500" version="1.1" xmlns:xlink="http://www.w3.org/1999/xlink" xmlns:svgjs="http://svgjs.com/svgjs"><style>svg#freepik_stories-internet-day:not(.animated) .animable {opacity: 0;}svg#freepik_stories-internet-day.animated #freepik--Search--inject-753 {animation: 1.5s Infinite  linear floating;animation-delay: 0s;}svg#freepik_stories-internet-day.animated #freepik--wifi-icon--inject-753 {animation: 1.5s Infinite  linear floating;animation-delay: 0s;}svg#freepik_stories-internet-day.animated #freepik--Character--inject-753 {animation: 1.5s Infinite  linear floating;animation-delay: 0s;}svg#freepik_stories-internet-day.animated #freepik--speech-bubble--inject-753 {animation: 1.5s Infinite  linear floating;animation-delay: 0s;}            @keyframes floating {                0% {                    opacity: 1;                    transform: translateY(0px);                }                50% {                    transform: translateY(-10px);                }                100% {                    opacity: 1;                    transform: translateY(0px);                }            }        .animator-hidden { display: none; }</style><g id="freepik--background-complete--inject-753" class="animable" style="transform-origin: 250px 183.44px;"><path d="M443.38,197.66H331.24s11.12-30.37,28.23-30.37,22.47,21,22.47,21,11.55-11.39,21-11.39,17.73,15,17.73,15S434.1,183.82,443.38,197.66Z" style="fill: rgb(235, 235, 235); transform-origin: 387.31px 182.475px;" id="elpkmafhgsgt" class="animable"></path><path d="M402.35,68.77H349.94s11.71-17,20.94-17,11.95,11.31,11.95,11.31,6.51-5.28,12.54-4.34S402.35,68.77,402.35,68.77Z" style="fill: rgb(235, 235, 235); transform-origin: 376.145px 60.27px;" id="elu0yyc9m3gg" class="animable"></path><path d="M159.86,234.39H107.45s11.71-17,20.94-17,12,11.31,12,11.31,6.51-5.28,12.54-4.34S159.86,234.39,159.86,234.39Z" style="fill: rgb(235, 235, 235); transform-origin: 133.655px 225.89px;" id="elmjfx9au9ph" class="animable"></path><path d="M158.69,164.65H56.62s14-31.21,28.93-33.16,22.11,23.19,22.11,23.19,9.64-8.89,17.23-8.89,13.43,11.7,13.43,11.7S153.49,149.48,158.69,164.65Z" style="fill: rgb(235, 235, 235); transform-origin: 107.655px 148.016px;" id="eljtwt5005hnr" class="animable"></path><path d="M192.5,89.78h-69s11.85-22.61,24.7-22.94S167.84,84,167.84,84,187.83,67.92,192.5,89.78Z" style="fill: rgb(235, 235, 235); transform-origin: 158px 78.3077px;" id="el1dr25h0zz9a" class="animable"></path><path d="M372.55,315.11h-69s11.85-22.61,24.7-22.94,19.6,17.11,19.6,17.11S367.88,293.24,372.55,315.11Z" style="fill: rgb(235, 235, 235); transform-origin: 338.05px 303.638px;" id="elds5cm4vfxm" class="animable"></path><g id="freepik--aiZGp2--inject-753" class="animable" style="transform-origin: 307.82px 119.055px;"><path d="M278.48,94.19A70.53,70.53,0,0,0,273.7,116H254.38v-.54c.05-.49.11-1,.15-1.48a54.6,54.6,0,0,1,1.28-7.62,59.15,59.15,0,0,1,4.3-11.9.43.43,0,0,1,.46-.28h17.91Z" style="fill: rgb(235, 235, 235); transform-origin: 266.43px 105.088px;" id="elp3j9w5vfsu" class="animable"></path><path d="M277.89,142.93H260.14a.4.4,0,0,1-.43-.28,54.3,54.3,0,0,1-4.41-13.42,53.57,53.57,0,0,1-.87-6.8c0-.07,0-.15-.05-.23v-.53l.29,0h18.7c.34,0,.33,0,.35.35.12,1.55.22,3.1.37,4.65a62.19,62.19,0,0,0,1.19,7.31,65.91,65.91,0,0,0,2.53,8.69C277.84,142.73,277.86,142.82,277.89,142.93Z" style="fill: rgb(235, 235, 235); transform-origin: 266.135px 132.301px;" id="elylu7b3gsk6" class="animable"></path><path d="M352.56,148.55l-.15.27a54.68,54.68,0,0,1-5,6.52,50,50,0,0,1-7.37,6.8,53.4,53.4,0,0,1-8.4,5.2,52.65,52.65,0,0,1-8.88,3.45,55,55,0,0,1-7.4,1.58l-.72.12h-.43l-.41-.26.47-.33a57,57,0,0,0,14-13.58,64,64,0,0,0,5.72-9.5.42.42,0,0,1,.44-.27h18.16Z" style="fill: rgb(235, 235, 235); transform-origin: 333.195px 160.519px;" id="elid3cw6z16vn" class="animable"></path><path d="M334.8,116H309.86V94.2h19.47a.34.34,0,0,1,.39.25,60.2,60.2,0,0,1,4,12.77,64.67,64.67,0,0,1,1,6.92C334.7,114.74,334.75,115.35,334.8,116Z" style="fill: rgb(235, 235, 235); transform-origin: 322.33px 105.097px;" id="el7kob10fq6of" class="animable"></path><path d="M334.65,121.81c0,.51,0,1-.07,1.54-.11,1.21-.2,2.43-.37,3.63-.23,1.67-.49,3.34-.82,5a59.89,59.89,0,0,1-3.23,10.64.43.43,0,0,1-.46.32h-20V121.81Z" style="fill: rgb(235, 235, 235); transform-origin: 322.175px 132.376px;" id="elf1ph01uurwi" class="animable"></path><path d="M304.24,94.33v21.83H279.88c0-.56.06-1.1.11-1.64.13-1.22.23-2.44.42-3.66.3-1.84.62-3.69,1-5.53a57.43,57.43,0,0,1,3.52-10.74.39.39,0,0,1,.42-.26h18.88Z" style="fill: rgb(235, 235, 235); transform-origin: 292.06px 105.243px;" id="ells832rc2gom" class="animable"></path><path d="M304.26,122.1v20.83H284.8a.4.4,0,0,1-.43-.28,55.74,55.74,0,0,1-3.31-11c-.37-1.94-.65-3.9-.89-5.85-.16-1.28-.2-2.57-.29-3.86,0,0,0-.07,0-.14H304C304.21,121.78,304.26,121.86,304.26,122.1Z" style="fill: rgb(235, 235, 235); transform-origin: 292.07px 132.365px;" id="elre7blnibb6" class="animable"></path><path d="M361.25,116.15H340.81a71,71,0,0,0-4.76-22h19a.42.42,0,0,1,.45.26,53.34,53.34,0,0,1,4.71,13.67,57.94,57.94,0,0,1,1,7.66C361.25,115.89,361.25,116,361.25,116.15Z" style="fill: rgb(235, 235, 235); transform-origin: 348.65px 105.148px;" id="eldym74vhsvom" class="animable"></path><path d="M361.26,121.65c0,.49,0,1-.07,1.42a52.43,52.43,0,0,1-4.42,17.78c-.28.63-.58,1.26-.87,1.89a.28.28,0,0,1-.3.19H336.82l-.2,0,.67-1.92a67.78,67.78,0,0,0,3.41-17.37c0-.58.07-1.17.09-1.76,0-.15,0-.23.22-.21h20.25Z" style="fill: rgb(235, 235, 235); transform-origin: 348.94px 132.291px;" id="elgmc1656reef" class="animable"></path><path d="M352,88.63a.3.3,0,0,1,0,.08H333.83a.41.41,0,0,1-.43-.26,61.53,61.53,0,0,0-8.87-13.14A50,50,0,0,0,317.72,69c-1.22-.94-2.48-1.82-3.73-2.72l-.21-.16L314,66c0-.11-.07-.22-.12-.38a53.41,53.41,0,0,1,38.09,23Z" style="fill: rgb(235, 235, 235); transform-origin: 332.891px 77.1664px;" id="elua28xdad0v" class="animable"></path><path d="M300.78,172.25a2.54,2.54,0,0,1-.52.08,48,48,0,0,1-5.83-1.13,52.82,52.82,0,0,1-20.94-10.78,50.28,50.28,0,0,1-6.36-6.36,53.55,53.55,0,0,1-4-5.49l-.08-.17H280a.41.41,0,0,1,.42.27,60.71,60.71,0,0,0,13.28,17.91,56.63,56.63,0,0,0,6.9,5.55S300.68,172.16,300.78,172.25Z" style="fill: rgb(235, 235, 235); transform-origin: 281.915px 160.364px;" id="elfvcoxc9p41" class="animable"></path><path d="M300.55,66.14c-.75.56-1.65,1.19-2.52,1.85A63.63,63.63,0,0,0,290,75.5a56.62,56.62,0,0,0-8.46,12.07c-.14.28-.27.56-.43.83a.4.4,0,0,1-.26.16c-.3,0-.61,0-.91,0H263.64c9.07-12.8,21.24-20.5,36.73-22.85l-.11.21Z" style="fill: rgb(235, 235, 235); transform-origin: 282.095px 77.135px;" id="elqqjf6w1b7qg" class="animable"></path><path d="M327.36,148.57a58.3,58.3,0,0,1-8.24,11.14,52.11,52.11,0,0,1-9.4,8V148.57Z" style="fill: rgb(235, 235, 235); transform-origin: 318.54px 158.14px;" id="ela2uqatqu4mp" class="animable"></path><path d="M304.23,148.57v18.76a54.18,54.18,0,0,1-16.92-18.76Z" style="fill: rgb(235, 235, 235); transform-origin: 295.77px 157.95px;" id="el61bt8msyk0n" class="animable"></path><path d="M326.8,88.55H309.86V70.68a51.52,51.52,0,0,1,9.51,8A59.21,59.21,0,0,1,326.8,88.55Z" style="fill: rgb(235, 235, 235); transform-origin: 318.33px 79.615px;" id="elcaksdg0ucah" class="animable"></path><path d="M304.24,71.24V88.7H288A51.4,51.4,0,0,1,304.24,71.24Z" style="fill: rgb(235, 235, 235); transform-origin: 296.12px 79.97px;" id="elfyxglltdk1j" class="animable"></path></g></g><g id="freepik--Shadow--inject-753" class="animable" style="transform-origin: 250px 445.1px;"><ellipse cx="250" cy="445.1" rx="91.14" ry="10.87" style="fill: rgb(235, 235, 235); transform-origin: 250px 445.1px;" id="elgg21aftfmlm" class="animable"></ellipse></g><g id="freepik--Search--inject-753" class="animable" style="transform-origin: 146.415px 116.56px;"><rect x="68.59" y="105.94" width="155.64" height="21.24" style="fill: rgb(255, 255, 255); transform-origin: 146.41px 116.56px;" id="elmws954eukqm" class="animable"></rect><path d="M224.74,127.68H68.09V105.44H224.74Zm-155.65-1H223.74V106.44H69.09Z" style="fill: rgb(199, 199, 199); transform-origin: 146.415px 116.56px;" id="el0pnjnwq9wzoj" class="animable"></path><rect x="203" y="105.94" width="21.24" height="21.24" style="fill: rgb(240, 128, 128); transform-origin: 213.62px 116.56px;" id="elt7cf28q725i" class="animable"></rect><path d="M220.35,122.51l-2,1.49-3.63-4.8-1.33-1.75a3.6,3.6,0,0,0,.76-.43,3.2,3.2,0,0,0,1-1.31l1.41,1.86Z" style="fill: rgb(255, 255, 255); transform-origin: 216.87px 119.855px;" id="el00nx4nvss05q" class="animable"></path><path d="M216.49,111.22a5.35,5.35,0,1,0-1.73,8,5.48,5.48,0,0,0,.74-.48,5,5,0,0,0,1.11-1.15A5.36,5.36,0,0,0,216.49,111.22Zm-2.3,5.8a3.6,3.6,0,0,1-.76.43,3.19,3.19,0,1,1,.76-.43Z" style="fill: rgb(255, 255, 255); transform-origin: 212.254px 114.492px;" id="elcp65rz0i3s" class="animable"></path><rect x="109.66" y="110.12" width="1.07" height="12.89" style="fill: rgb(38, 50, 56); transform-origin: 110.195px 116.565px;" id="elj5mmm3pmarl" class="animable"></rect><path d="M85.2,113.17h1.11L83.42,120h-1l-1.36-3.32L79.75,120h-.94l-2.89-6.79H77l2.34,5.65L80.5,116l-1.17-2.82h.94l.84,2.17.83-2.17h1L81.73,116l1.14,2.82Z" style="fill: rgb(38, 50, 56); transform-origin: 81.115px 116.585px;" id="el3u53a62iwc7" class="animable"></path><path d="M95.88,113.17H97L94.1,120h-.95l-1.37-3.32L90.43,120h-1l-2.89-6.79h1.1L90,118.82,91.17,116,90,113.18h1l.83,2.17.83-2.17h1L92.41,116l1.14,2.82Z" style="fill: rgb(38, 50, 56); transform-origin: 91.77px 116.585px;" id="el3yxygf6t3at" class="animable"></path><path d="M106.55,113.17h1.11L104.77,120h-1l-1.36-3.32L101.1,120h-.95l-2.88-6.79h1.09l2.34,5.65,1.14-2.82-1.17-2.82h1l.84,2.17.83-2.17h.95L103.08,116l1.14,2.82Z" style="fill: rgb(38, 50, 56); transform-origin: 102.465px 116.585px;" id="elj1ugtk3oqqi" class="animable"></path></g><g id="freepik--Cursor--inject-753" class="animable" style="transform-origin: 154.945px 143.35px;"><polygon points="160.83 153.05 165.56 164.47 160.84 166.43 156.09 154.93 148.28 160.99 148.28 128.82 170.8 151.57 160.83 153.05" style="fill: rgb(38, 50, 56); transform-origin: 159.54px 147.625px;" id="el94bzwlozqra" class="animable"></polygon><path d="M148.56,124.54a4.81,4.81,0,0,1,0-4.27,4.81,4.81,0,0,1,0,4.27Z" style="fill: rgb(38, 50, 56); transform-origin: 148.56px 122.405px;" id="el9h85a7xles4" class="animable"></path><path d="M144.88,126.06a4.36,4.36,0,0,1-1.86-1.15,4.51,4.51,0,0,1-1.16-1.87,4.51,4.51,0,0,1,1.87,1.16A4.36,4.36,0,0,1,144.88,126.06Z" style="fill: rgb(38, 50, 56); transform-origin: 143.37px 124.55px;" id="el1pf3e23n7bl" class="animable"></path><path d="M143.36,129.74a4.81,4.81,0,0,1-4.27,0,4.81,4.81,0,0,1,4.27,0Z" style="fill: rgb(38, 50, 56); transform-origin: 141.225px 129.74px;" id="elroqm9rq51fb" class="animable"></path><path d="M144.88,133.41a4.36,4.36,0,0,1-1.15,1.86,4.51,4.51,0,0,1-1.87,1.16,4.41,4.41,0,0,1,1.16-1.86A4.28,4.28,0,0,1,144.88,133.41Z" style="fill: rgb(38, 50, 56); transform-origin: 143.37px 134.92px;" id="elbaonkyawy8" class="animable"></path><path d="M153.75,129.74a4.81,4.81,0,0,1,4.27,0,4.81,4.81,0,0,1-4.27,0Z" style="fill: rgb(38, 50, 56); transform-origin: 155.885px 129.74px;" id="eldb9pipy2gi5" class="animable"></path><path d="M152.23,126.06a4.28,4.28,0,0,1,1.16-1.86,4.41,4.41,0,0,1,1.86-1.16,4.51,4.51,0,0,1-1.16,1.87A4.36,4.36,0,0,1,152.23,126.06Z" style="fill: rgb(38, 50, 56); transform-origin: 153.74px 124.55px;" id="el0rm76dgoose" class="animable"></path></g><g id="freepik--Plants--inject-753" class="animable" style="transform-origin: 256.81px 332.865px;"><path d="M91.22,335.39c-5,.18-10.59.46-14.74-2.78-3.83-3-7.24-7.47-6.74-12.6.15-1.46.49-2.36,2.05-1.74,2.39,1,4.23,3.59,5.89,5.44a50.23,50.23,0,0,0,6.94,6.58c1.78,1.37,3.7,2.55,5.52,3.87.23.17.46.33.68.51l.26.19h.14a.25.25,0,0,1,.21.11l0,.08A.26.26,0,0,1,91.22,335.39Z" style="fill: rgb(55, 71, 79); transform-origin: 80.5673px 326.779px;" id="eli95a51xel5f" class="animable"></path><path d="M91.47,335.06c-4.41-.07-9.16.13-12.68-2.86a20.36,20.36,0,0,1-4.08-5c-.51-.83-2-3.3-1.41-4.28,1.15-1.78,6.39,5.47,7.12,6.17a21.43,21.43,0,0,0,9.72,5c.23.17.46.33.68.51a24.17,24.17,0,0,1-7.3-2.8c-3.12-1.87-4.86-4.62-7.31-7.19-.52-.56-2.12-2.43-2.72-1.27-.39.77,1.08,3.19,1.4,3.71a20.41,20.41,0,0,0,3.86,4.72c3.51,3.06,8.24,3,12.68,3.14Z" style="fill: rgb(255, 255, 255); transform-origin: 82.317px 328.85px;" id="elv77t3vtcjkn" class="animable"></path><path d="M94,338.45l-.12.58a0,0,0,0,1,0,0,.13.13,0,0,1-.09.11.21.21,0,0,1-.26-.1.15.15,0,0,1,0-.13.19.19,0,0,1,0-.07l.06-.17v0s0,0,0-.06c-.89-3.31-1.23-6.75-2.17-10.07-.89-3.16-2-6.27-2.64-9.49-.41-2-1.82-12.26,2.68-11,2,.56,3.36,3.45,4.12,5.18a21.26,21.26,0,0,1,1.66,7.34C97.53,326.81,95.24,332.47,94,338.45Z" style="fill: rgb(55, 71, 79); transform-origin: 92.7555px 323.548px;" id="el51ytvxisqyf" class="animable"></path><path d="M95.42,325.73a24.57,24.57,0,0,0-.72-6.94c-.2-.78-1.18-4.54-2.45-4.44-.83,0-1,1.67-1,2.21-.28,2.27.45,4.59.9,6.81A93.55,93.55,0,0,1,93.76,337l-.12.87-.09.72,0,.25a1.11,1.11,0,0,0,0,.19.22.22,0,0,0,.26.11c0-.19,0-.38.08-.56,0,.15,0,.3,0,.45a0,0,0,0,0,0,0l.09-.47,0-.11c0-.26,0-.52,0-.76A100.88,100.88,0,0,0,95.42,325.73ZM93.9,336c-.12-2.68-.39-5.35-.77-8-.3-2.14-.7-4.26-1.15-6.37a22.19,22.19,0,0,1-.58-3.62c0-.93.09-4.38,1.87-2.24,1.28,1.55,1.59,4.85,1.75,6.75a34.45,34.45,0,0,1-.13,6.34C94.65,331.29,94.26,333.67,93.9,336Z" style="fill: rgb(255, 255, 255); transform-origin: 93.3133px 326.749px;" id="el53nem80r02k" class="animable"></path><path d="M96.68,352.19h0l-.18,0c-4.58-.23-10.68.2-14.49-2.83-2.81-2.24-5.57-6.66-4.68-10.41,1-4.23,6.72.84,8.23,2.07A139.42,139.42,0,0,1,96.77,352l.06.08v0C96.88,352.12,96.78,352.16,96.68,352.19Z" style="fill: rgb(55, 71, 79); transform-origin: 87.0017px 344.743px;" id="el37x6lbhqadr" class="animable"></path><path d="M96.83,352.05l-.79-.49c-3-1.9-5.94-3.92-8.76-6.09-.71-.54-5.87-5.13-6.64-3.49-.47,1,1.23,3,1.77,3.69a14.13,14.13,0,0,0,3.48,3.11c3,1.9,6.75,2.31,10.21,3.23l.49.12.08.05h0C96.78,352.16,96.87,352.12,96.83,352.05Zm-9-2.61a13.76,13.76,0,0,1-4-2.67c-.77-.72-3.48-3.46-2.76-4.59.38-.6.7-.28,1.43.08a7.86,7.86,0,0,1,1,.56c.77.5,1.47,1.09,2.19,1.66q1.88,1.51,3.83,2.92c2.13,1.56,4.32,3,6.55,4.4C93.29,351,90.39,350.62,87.78,349.44Z" style="fill: rgb(255, 255, 255); transform-origin: 88.6992px 346.904px;" id="el5texd4v92ce" class="animable"></path><path d="M105,342.75a27.12,27.12,0,0,1-7.85,13.71l-.08.05a.21.21,0,0,1-.24-.09.19.19,0,0,1,0-.26l.23-.24c.76-6.22,1.59-12.41,2.23-18.65.15-1.47,1.3-10.83,4.18-9.31,1.78.94,1.9,4.78,2,6.5A27.48,27.48,0,0,1,105,342.75Z" style="fill: rgb(55, 71, 79); transform-origin: 101.186px 342.156px;" id="elayih5s1r9hv" class="animable"></path><path d="M103.38,334.41c-.16-.52-.43-1.05-1-.69-1.12.7-1.56,5.1-1.75,6.32-.77,5-2,9.85-3.17,14.76l-.3,1.25-.28.37a.21.21,0,0,0,.24.09l0-.13c.13-.16.26-.33.38-.5h0a32,32,0,0,0,4.53-8.83,30.07,30.07,0,0,0,1.33-6.16C103.6,339,104,336.3,103.38,334.41ZM97.5,355.54l-.17.25c.06-.17.11-.34.16-.51a91.45,91.45,0,0,0,2.8-11.42c.33-2,.54-3.95.94-5.89.18-.83.58-3.18,1.26-3.56s.67.54.74,1.06a14,14,0,0,1,0,1.43A31.52,31.52,0,0,1,97.5,355.54Z" style="fill: rgb(255, 255, 255); transform-origin: 100.295px 345.061px;" id="el6d0ptltdit6" class="animable"></path><path d="M98,369.88H97L97,367.47c-.11-3.25-.24-6.51-.43-9.76-.11-1.85-.24-3.69-.44-5.52a1.09,1.09,0,0,1,0-.18c0-.15,0-.3-.06-.45s0-.32-.06-.49a39.71,39.71,0,0,0-3.14-11.95Q92,337.23,91,335.4l-.19-.35-.06-.1c-.06-.12-.13-.24-.2-.36l-.15-.27c-2.12-3.73-4.55-7.29-6.84-10.88-.66-1-1.32-2.05-2-3.09a1.74,1.74,0,0,1-.11-.18,1.82,1.82,0,0,1-.15-.23c-2.89-4.55-5.73-9.15-8.72-13.62-.12-.16.15-.31.26-.15,2,3,4.12,5.89,6.2,8.82.28.39.55.79.83,1.17l1.64,2.32c1.09,1.56,2.16,3.11,3.2,4.68a131,131,0,0,1,8.43,13.64c.18.36.35.72.52,1.08s.22.45.31.68.25.52.36.78a41.92,41.92,0,0,1,3.08,14.42c0,.34,0,.69.06,1,0,.16,0,.32,0,.48a2.26,2.26,0,0,0,0,.26c0,.11,0,.21,0,.33h0v.25c0,.29,0,.59,0,.89.14,3.25.22,6.5.29,9.75C97.87,367.8,97.91,368.84,98,369.88Z" style="fill: rgb(55, 71, 79); transform-origin: 85.2749px 337.991px;" id="el5sr2lh1kx2e" class="animable"></path><path d="M70.62,311c-2.5-3.37-5.72-10.33-2-13.94a3.93,3.93,0,0,1,5.24-.39c2,1.41,2.82,4.08,3.45,6.29,1.7,5.89,2.82,11.9,4.93,17.68,0,0,.18.5.23.62s-.14.17-.19.06l-.21-.57C78.06,317.83,73.6,315,70.62,311Z" style="fill: rgb(55, 71, 79); transform-origin: 74.7037px 308.615px;" id="el8wzcfnani8d" class="animable"></path><path d="M82.26,320.63a.53.53,0,0,1-.06-.1,41.82,41.82,0,0,1-2.35-4.37,85.19,85.19,0,0,1-3.6-9.65c-.4-1.27-2.2-7.46-4.42-5-.93,1-.8,2.88-.65,4.15a15.64,15.64,0,0,0,1.93,5.81c2,3.57,5.07,6.28,8.32,8.69l.44.33.09.16.06.1s0,0,.06,0a.13.13,0,0,0,.19-.08A.1.1,0,0,0,82.26,320.63Zm-1-.69a32.92,32.92,0,0,1-7.06-7.08,17.54,17.54,0,0,1-2.29-4.68,13.64,13.64,0,0,1-.5-2.28,10,10,0,0,1-.1-1.74c0-1.27.57-2.66,1.32-2.79.93-.17,1.24.37,1.85,1.44a11.7,11.7,0,0,1,.56,1.12c.41,1,.72,1.95,1,2.93.52,1.64,1,3.27,1.63,4.89.4,1.09.83,2.18,1.29,3.24a42.73,42.73,0,0,0,2.75,5.34C81.61,320.21,81.44,320.08,81.28,319.94Z" style="fill: rgb(255, 255, 255); transform-origin: 76.6722px 310.852px;" id="elds9zpp7zf9" class="animable"></path><path d="M422.83,320.39c-.42,3.34-1.05,6.65-1.73,9.94-.38,1.87-.78,3.74-1.16,5.61-.42,2.07-1,4.17-.47,6.25h0a1.52,1.52,0,0,1,0,.29l0,0a.26.26,0,0,1-.44-.08l0-.14,0,0a8.72,8.72,0,0,1-.72-1.74,45.09,45.09,0,0,1-1.66-4.83,41.75,41.75,0,0,1-1.62-10.3,35.33,35.33,0,0,1,1-9.28c.6-2.43,1.44-6.05,3.25-7.91,1.64-1.67,3,1,3.48,2.38C423.73,313.67,423.22,317.23,422.83,320.39Z" style="fill: rgb(55, 71, 79); transform-origin: 419.168px 325.119px;" id="elba8t8a1dvm" class="animable"></path><path d="M419.84,313.3c-1.22,0-2.11,3.93-2.54,5.63a33.88,33.88,0,0,0-1,8.2,43.76,43.76,0,0,0,2.52,14.56c.06.19.13.38.2.57l0,0a1,1,0,0,0,0,.14.25.25,0,0,0,.43.07c-.08-.41-.14-.81-.19-1.22s-.08-.74-.1-1.1a58.07,58.07,0,0,1,.74-12.06C420.52,323.47,421.45,313.31,419.84,313.3ZM419,341c.06.54.15,1.08.25,1.61-.13-.39-.25-.78-.37-1.17a48.39,48.39,0,0,1-2.29-12.84,34.85,34.85,0,0,1,.53-7.35,31.66,31.66,0,0,1,.95-3.84c.17-.53,1.05-3.82,1.81-3.65.52.11.65,3.08.66,3.14,0,.59,0,1.19,0,1.78,0,1.23-.1,2.46-.2,3.68-.23,2.64-.61,5.28-.93,7.92A45.83,45.83,0,0,0,419,341Z" style="fill: rgb(255, 255, 255); transform-origin: 418.518px 327.955px;" id="el8dzun5woku" class="animable"></path><path d="M442,329.62c-2.23,4.36-6,7.7-9.89,10.57-2.09,1.53-4.24,3-6.36,4.45a34.24,34.24,0,0,0-5.5,4.22l-.21.23a9,9,0,0,0-1.13,1.57.15.15,0,0,1-.11.07,1.46,1.46,0,0,1-.07.19,0,0,0,0,1-.09,0l0-.21v0a.14.14,0,0,1,0-.17.25.25,0,0,1,0-.07,1.49,1.49,0,0,1,0-.21c.64-5.1,4.21-10.26,7.22-14.18s6.74-7.4,11.4-9.2c1.17-.45,3.83-1.69,5-.74S442.49,328.69,442,329.62Z" style="fill: rgb(55, 71, 79); transform-origin: 430.717px 338.355px;" id="eluec3yo0a7y" class="animable"></path><path d="M438.56,329.64c-1.07-1.07-4.19,1.56-5,2.17a52.75,52.75,0,0,0-6.47,6.3,46.35,46.35,0,0,0-8.27,12h0a1.71,1.71,0,0,1-.11.14l0,.22a.21.21,0,0,0,0,.07.14.14,0,0,0,0,.17l.16-.18c.38-.48.8-.94,1.21-1.4l.21-.23a101,101,0,0,1,9.68-8.54,47.71,47.71,0,0,0,6.44-6.27C436.87,333.46,439.45,330.53,438.56,329.64Zm-1,2.33c-2.64,4.38-7.21,7.58-11.09,10.77a53,53,0,0,0-7.37,7A49.71,49.71,0,0,1,426.77,339a68.73,68.73,0,0,1,5.25-5.41,28.07,28.07,0,0,1,3.19-2.55,10.42,10.42,0,0,1,2.16-1.16C438.85,329.41,438,331.22,437.58,332Z" style="fill: rgb(255, 255, 255); transform-origin: 428.713px 340.048px;" id="el5olbtfzee34" class="animable"></path><path d="M418.21,361.05a.29.29,0,0,1-.23.13l.06.08a.08.08,0,0,1,0,.11.08.08,0,0,1-.11,0c-4.13-4.21-8.11-9.32-10.17-14.9a23,23,0,0,1-1.48-7.33c-.05-1.72-.14-5.18,1.33-6.43,3-2.51,5.65,8.16,6.05,9.76.73,2.94,1.21,5.92,1.89,8.87.74,3.22,1.71,6.38,2.68,9.54A.25.25,0,0,1,418.21,361.05Z" style="fill: rgb(55, 71, 79); transform-origin: 412.247px 346.861px;" id="eltk5dbnutann" class="animable"></path><path d="M418.21,361.05c-.17-.27-.32-.55-.47-.82a49.89,49.89,0,0,1-5.32-14.33,45.52,45.52,0,0,0-2-7.46c-.24-.59-1-2.87-1.95-1.72-.51.6-.09,4.91.11,6a32,32,0,0,0,2.4,7.33,52,52,0,0,0,6.78,11l.23.3a.08.08,0,0,0,0-.11l-.06-.08A.27.27,0,0,0,418.21,361.05Zm-6-9.17a35.53,35.53,0,0,1-2.84-7.11,23.33,23.33,0,0,1-.62-3,17.39,17.39,0,0,1-.21-2.38c0-1.95.17-2.45.5-2.52s.48.17,1.06,1.33a13.32,13.32,0,0,1,.83,2.37c.3,1.15.56,2.31.81,3.47.51,2.32,1,4.66,1.65,6.93a38.79,38.79,0,0,0,4.11,9.32A59,59,0,0,1,412.21,351.88Z" style="fill: rgb(255, 255, 255); transform-origin: 413.218px 348.875px;" id="elohrvs3z4hm" class="animable"></path><path d="M431.47,350.82a14.69,14.69,0,0,1-2.71,5.64c-2.46,3.39-5.6,6.21-8.28,9.41q-.6.72-1.17,1.47c0,.05-.34.76-.34.7s0-.28.14-.73h0c.43-2.24,1.84-9,3.6-12.49a30.22,30.22,0,0,1,3.91-6.13c.76-.85,2.55-2.71,3.89-2.31S431.68,349.75,431.47,350.82Z" style="fill: rgb(55, 71, 79); transform-origin: 425.291px 357.184px;" id="elpcb73v3r37n" class="animable"></path><path d="M429.28,349.45c-1.43-.89-5.14,5.72-5.63,6.58a41.88,41.88,0,0,0-4.22,10.08c-.12.39-.22.79-.32,1.19s-.14.73-.14.74.31-.64.35-.7l.19-.26c.32-.41.65-.82,1-1.2,1.61-2.41,3.26-4.79,4.82-7.24a38.38,38.38,0,0,0,3-5.49C428.48,352.71,429.91,349.84,429.28,349.45Zm-.41,1.87c-2,5.75-6.21,10.28-9.39,15.39l-.16.24c.05-.14.09-.3.14-.45a48.38,48.38,0,0,1,3.37-8.39,46.4,46.4,0,0,1,2.84-4.74,22.53,22.53,0,0,1,1.77-2.46c.3-.32,1.14-1.19,1.43-1S429,350.93,428.87,351.32Z" style="fill: rgb(255, 255, 255); transform-origin: 424.205px 358.704px;" id="elsax25ah2sg" class="animable"></path><path d="M445.88,303.35c-4.26,9.81-15.46,14.37-20.31,23.82l0,.05c-.15.29-.29.58-.43.88a.2.2,0,0,1-.32,0,.15.15,0,0,1,0-.17,2,2,0,0,1,.1-.21,51.32,51.32,0,0,1,6-17.16c2.45-4.51,5.81-8.74,10.46-11.12,1.14-.59,3.38-1.83,4.66-.86S446.41,302.15,445.88,303.35Z" style="fill: rgb(55, 71, 79); transform-origin: 435.743px 313.201px;" id="el68ujqb86jp4" class="animable"></path><path d="M442,303.78c-.54-.41-1.36.08-1.83.32a17,17,0,0,0-3.24,2.21,27.42,27.42,0,0,0-5.16,6.14,56,56,0,0,0-6.08,12.34c-.33,1-.62,2-.85,3,0,.13-.05.25-.08.38a.2.2,0,0,0,.32,0c.13-.29.27-.57.41-.85,0,0,0-.05,0-.08a32.23,32.23,0,0,1,3-5.59A76.81,76.81,0,0,1,435,314C435.86,313,443.92,305.15,442,303.78Zm-.68,2.26c-1.3,2.31-3.31,4.19-5.06,6.14s-3.56,3.94-5.3,5.94a36.92,36.92,0,0,0-3.74,5.1,29.56,29.56,0,0,0-2.33,4.72A40.55,40.55,0,0,1,426.6,323s0,0,0,0a71.28,71.28,0,0,1,4.14-8.24.54.54,0,0,1,.05-.11,34,34,0,0,1,4.72-6.59,19.88,19.88,0,0,1,3.36-2.85c1.4-.91,2.63-1.5,3-1.05S441.75,305.37,441.36,306Z" style="fill: rgb(255, 255, 255); transform-origin: 433.527px 315.936px;" id="el265q8ar3btf" class="animable"></path><path d="M431,314.84c-1.28,2.77-2.5,5.57-3.72,8.38-.57,1.32-1.14,2.64-1.69,3.95,0,0,0,.05,0,.08-.21.47-.42.95-.62,1.42-1.84,4.3-3.88,8.71-5,13.26a40,40,0,0,0-1,7.37c0,.25,0,.51,0,.77h0v.42a1.93,1.93,0,0,0,0,.24c-.08,2.15-.05,4.3,0,6.4.05,2.92.3,5.83.58,8.72a1.15,1.15,0,0,0,0,.26c0,.13,0,.26,0,.39a1.49,1.49,0,0,0,0,.21l0,.37c.09.93.18,1.86.26,2.8h-.9a57.66,57.66,0,0,1-1.07-8.63,1.09,1.09,0,0,1,0-.18c0-.28,0-.57-.05-.84s0-.7-.05-1c0-.84-.05-1.67-.07-2.5a61.39,61.39,0,0,1,1-14.45l.09-.39c0-.05,0-.1,0-.16l.06-.28L419,341c.07-.26.15-.53.23-.78l.06-.24a95.22,95.22,0,0,1,4.93-11.9l1-2.1c.19-.39.37-.78.56-1.16l.87-1.76s0,0,0,0c1.36-2.76,2.78-5.48,4.14-8.24C430.83,314.61,431,314.71,431,314.84Z" style="fill: rgb(55, 71, 79); transform-origin: 424.298px 342.289px;" id="el0kxyn6vylqz" class="animable"></path></g><g id="freepik--Floor--inject-753" class="animable" style="transform-origin: 250px 369.88px;"><polygon points="45.75 369.88 96.82 369.64 147.88 369.55 250 369.38 352.12 369.55 403.19 369.64 454.25 369.88 403.19 370.13 352.12 370.21 250 370.38 147.88 370.21 96.82 370.12 45.75 369.88" style="fill: rgb(38, 50, 56); transform-origin: 250px 369.88px;" id="el5jk5c47t1jj" class="animable"></polygon></g><g id="freepik--wifi-icon--inject-753" class="animable" style="transform-origin: 250.025px 336.068px;"><g id="freepik--u5Zjqx--inject-753" class="animable" style="transform-origin: 250.025px 336.068px;"><path d="M402.15,295c-4.53,4.5-9.06,9-13.58,13.49-2.58,2.56-5.13,5.15-7.7,7.74-36.5-35.42-79.94-54.3-130.8-54.32S155.76,280.75,119,316.38c-2.42-2.53-4.85-5.12-7.33-7.66Q105,302,98.26,295.24a1.62,1.62,0,0,0-.41-.23v-.33c.34-.27.68-.53,1-.82,5.72-5.07,11.29-10.33,17.18-15.2a211.6,211.6,0,0,1,92.36-43c8.7-1.59,17.53-2.42,26.31-3.49,3-.37,22.43-.44,23-.39,6,.44,12,.71,17.94,1.35A204.09,204.09,0,0,1,324,244.65a211.1,211.1,0,0,1,32.67,15.29,206.4,206.4,0,0,1,31.18,21.83c4.9,4.18,9.57,8.59,14.35,12.91Z" style="fill: rgb(240, 128, 128); transform-origin: 250.025px 274.073px;" id="elx2mfivaeamm" class="animable"></path><path d="M162.09,358.91l-21.47-21.29c24.45-24,53.35-39.25,87.33-43.84,50.79-6.87,94.38,8.55,131.35,43.54l-21.55,21.45c-24.29-23.57-53.53-36.31-87.8-36.29S186.55,335.22,162.09,358.91Z" style="fill: rgb(240, 128, 128); transform-origin: 249.96px 325.546px;" id="elyflqeoyxypn" class="animable"></path><path d="M316.31,380.33,295,401.67c-12.36-12-27.37-18.66-45-18.64s-32.53,6.62-45,18.76l-21.32-21.31C217.6,344.89,278.72,342,316.31,380.33Z" style="fill: rgb(240, 128, 128); transform-origin: 249.995px 377.232px;" id="elvm2ljv6k1gc" class="animable"></path><path d="M269.25,421.07A19.29,19.29,0,1,1,250,401.79,19.28,19.28,0,0,1,269.25,421.07Z" style="fill: rgb(240, 128, 128); transform-origin: 249.96px 421.08px;" id="elq71fejnkr9l" class="animable"></path></g></g><g id="freepik--Text--inject-753" class="animable animator-hidden" style="transform-origin: 250px 421.859px;"><path d="M160,431V412.71h4.22V431Z" style="fill: rgb(55, 71, 79); transform-origin: 162.11px 421.855px;" id="ellt621xxbky" class="animable"></path><path d="M172,420.53V431h-4.22V412.71H171l8.52,10.73V412.71h4.21V431h-3.39Z" style="fill: rgb(55, 71, 79); transform-origin: 175.755px 421.855px;" id="elg24nqeg6sej" class="animable"></path><path d="M201.17,416.42h-5.55V431H191.4V416.42h-5.58v-3.71h15.35Z" style="fill: rgb(55, 71, 79); transform-origin: 193.495px 421.855px;" id="elaa18tcjsef" class="animable"></path><path d="M216.07,427.27V431H203.23V412.71h12.6v3.71h-8.38V420h7.2v3.42h-7.2v3.88Z" style="fill: rgb(55, 71, 79); transform-origin: 209.65px 421.855px;" id="el8qjez3lbf86" class="animable"></path><path d="M218.64,431V412.71h8.23a5.33,5.33,0,0,1,2.38.54,6.43,6.43,0,0,1,1.89,1.42,6.55,6.55,0,0,1,1.24,2,5.86,5.86,0,0,1,.45,2.24,6.8,6.8,0,0,1-.2,1.63A7,7,0,0,1,232,422a5.71,5.71,0,0,1-.94,1.24,5.46,5.46,0,0,1-1.25.94l4,6.79H229.1l-3.49-5.89h-2.76V431Zm4.21-9.56h3.86a1.59,1.59,0,0,0,1.29-.71,2.91,2.91,0,0,0,.54-1.81,2.58,2.58,0,0,0-.62-1.81,1.82,1.82,0,0,0-1.34-.66h-3.73Z" style="fill: rgb(55, 71, 79); transform-origin: 226.225px 421.855px;" id="el01pllee3sd8b" class="animable"></path><path d="M240.09,420.53V431h-4.22V412.71h3.29l8.51,10.73V412.71h4.22V431H248.5Z" style="fill: rgb(55, 71, 79); transform-origin: 243.88px 421.855px;" id="elh946r97dwy6" class="animable"></path><path d="M268.22,427.27V431H255.39V412.71H268v3.71h-8.38V420h7.2v3.42h-7.2v3.88Z" style="fill: rgb(55, 71, 79); transform-origin: 261.805px 421.855px;" id="elutyjl31zf47" class="animable"></path><path d="M284.71,416.42h-5.56V431h-4.22V416.42h-5.58v-3.71h15.36Z" style="fill: rgb(55, 71, 79); transform-origin: 277.03px 421.855px;" id="el2ncfwqibuhg" class="animable"></path><path d="M292.47,431V412.71h6.33a9.62,9.62,0,0,1,3.85.72,7.82,7.82,0,0,1,2.76,2,8,8,0,0,1,1.66,2.89,11.12,11.12,0,0,1,.55,3.54,10.63,10.63,0,0,1-.62,3.76,7.79,7.79,0,0,1-4.56,4.74,9.83,9.83,0,0,1-3.64.65Zm12.81-9.15a9.15,9.15,0,0,0-.42-2.84,6.32,6.32,0,0,0-1.26-2.23,5.83,5.83,0,0,0-2.05-1.45,6.81,6.81,0,0,0-2.75-.53h-4v14.14h4a7,7,0,0,0,2.79-.53,5.61,5.61,0,0,0,2-1.5,6.63,6.63,0,0,0,1.24-2.25A9,9,0,0,0,305.28,421.82Z" style="fill: rgb(55, 71, 79); transform-origin: 300.046px 421.859px;" id="el3zb9uo661na" class="animable"></path><path d="M315.8,412.71h2L325.21,431h-2.46l-2.16-5.35h-7.67L310.79,431h-2.47Zm4.27,11.11-3.29-8.43-3.4,8.43Z" style="fill: rgb(55, 71, 79); transform-origin: 316.765px 421.855px;" id="el43bmrf2o3w9" class="animable"></path><path d="M326.35,412.71l5.52,9.52,5.58-9.52H340l-7,11.6V431h-2.31v-6.71l-6.92-11.55Z" style="fill: rgb(55, 71, 79); transform-origin: 331.885px 421.855px;" id="eltbc7kz3auv" class="animable"></path></g><g id="freepik--Character--inject-753" class="animable" style="transform-origin: 250.001px 237.589px;"><path d="M351.73,265.56c-.76-2.29-41.21-55.74-44-56.77-.32-.13-18.4,12.74-18.4,12.74-.75,1-35.12-6.27-35.12-6.27l-.34,41.46,62.61-1.33s8.46,5,16.2,9h0a94.88,94.88,0,0,0,10.18,4.94C346,270.16,352.5,267.83,351.73,265.56Z" style="fill: rgb(255, 196, 192); transform-origin: 302.831px 239.145px;" id="elkhl17xof3nl" class="animable"></path><path d="M342.91,269.35c-1.21-.3-5.42-2.42-10.17-4.93h0c-7.74-4.05-16.2-9-16.2-9l-13.93.3-21.82-35.21c4.79.85,8.36,1.36,8.6,1,0,0,18.08-12.87,18.4-12.73,2.76,1,43.21,54.48,44,56.76S346,270.16,342.91,269.35Z" style="fill: rgb(255, 255, 255); transform-origin: 316.323px 239.146px;" id="elxnr7e6tbbo" class="animable"></path><path d="M352.1,265.63c-.8-2.34-41.43-55.76-44.27-56.82-1.07-.41-9.92,5.06-18.47,12.72l26.24,34.4s24.21,12.83,27.44,13.65S352.89,268,352.1,265.63Z" style="fill: rgb(166, 166, 166); transform-origin: 320.762px 239.266px;" id="elu82ildqq0r" class="animable"></path><path d="M349.38,266.49c-7-8.79-34.56-44.9-40.85-54.12,0-.07,0-.11.06,0,7.16,8.56,34.4,44.88,40.94,54C349.66,266.57,349.53,266.67,349.38,266.49Z" style="fill: rgb(38, 50, 56); transform-origin: 329.057px 239.443px;" id="el3jfiw8dj1bq" class="animable"></path><path d="M338.51,267.61a9.06,9.06,0,0,1-1.89-7,8.74,8.74,0,0,1,3.26-5.64c.05,0,.13.06.08.11a10.44,10.44,0,0,0-1.34,12.47A.07.07,0,0,1,338.51,267.61Z" style="fill: rgb(38, 50, 56); transform-origin: 338.248px 261.296px;" id="elhhgkfufy25h" class="animable"></path><path d="M318.63,258.06c-2.77-3.55-4.67-8.66-3.43-13.12.05-.17.29-.1.32.05a62.17,62.17,0,0,0,3.6,12.8A.28.28,0,0,1,318.63,258.06Z" style="fill: rgb(38, 50, 56); transform-origin: 316.981px 251.518px;" id="elg9u2r056v8n" class="animable"></path><path d="M321.82,260c-2.78-3.55-4.68-8.67-3.44-13.12.05-.18.29-.11.32,0a61.41,61.41,0,0,0,3.61,12.8A.29.29,0,0,1,321.82,260Z" style="fill: rgb(38, 50, 56); transform-origin: 320.175px 253.451px;" id="elwwcn6gqgtrd" class="animable"></path><path d="M325,262c-2.78-3.54-4.67-8.66-3.44-13.12.05-.17.3-.1.32,0a62.65,62.65,0,0,0,3.61,12.8A.28.28,0,0,1,325,262Z" style="fill: rgb(38, 50, 56); transform-origin: 323.357px 255.455px;" id="el4vwj9ncew2q" class="animable"></path><path d="M328.18,263.9c-2.77-3.55-4.67-8.66-3.43-13.12.05-.17.29-.1.32,0a62.26,62.26,0,0,0,3.6,12.81A.28.28,0,0,1,328.18,263.9Z" style="fill: rgb(38, 50, 56); transform-origin: 326.539px 257.356px;" id="el49h83z09amu" class="animable"></path><path d="M301.76,221.12c-3.05-4,3.21-8.77,6.27-4.73S304.81,225.16,301.76,221.12Z" style="fill: rgb(38, 50, 56); transform-origin: 304.896px 218.758px;" id="elr8rm0god0l" class="animable"></path><path d="M317.05,264.93c1-3.84.35-8,.18-11.87a.55.55,0,0,0-.78-.43.12.12,0,0,0-.19,0,23.66,23.66,0,0,0-6.69,10.23c-.71,2.31-.44,5.71,2.45,6.38C314.74,269.84,316.45,267.16,317.05,264.93Zm-2.84,2.42c-4.17,2.61-3.85-3.19-3.26-4.87a26,26,0,0,1,1.42-3.14,71.34,71.34,0,0,1,3.78-6.06c0,1.92.1,3.82.14,5.74C316.34,261.3,316.51,265.91,314.21,267.35Z" style="fill: rgb(38, 50, 56); transform-origin: 313.417px 260.952px;" id="ele0pri5npftl" class="animable"></path><path d="M304.29,241.61c-2.12,2.06-.6,5.12,1.2,6.73a23.66,23.66,0,0,0,11,5.31c.1,0,.14-.05.15-.12a.55.55,0,0,0,.45-.77c-1.86-3.43-3.42-7.32-6.27-10.08C309.15,241.07,306.31,239.66,304.29,241.61Zm8.92,6.53c1,1.67,1.82,3.37,2.84,5a67.84,67.84,0,0,1-6.36-3.24,25.22,25.22,0,0,1-2.84-2c-1.38-1.13-4.64-5.93.28-5.85C309.84,242.12,312.07,246.16,313.21,248.14Z" style="fill: rgb(38, 50, 56); transform-origin: 310.197px 247.156px;" id="elx9r2g6ds3p" class="animable"></path><path d="M252.35,202.54H224.24s-29.4-14.13-53.08-8.44c-27.14,6.53-30.61,40.63-10.32,52.68C186.55,262.06,301,259.1,301,259.1l-24.74-41.92s-38-8-72.54-6.84L252.35,217Z" style="fill: rgb(55, 71, 79); transform-origin: 224.419px 226.04px;" id="el42e2p6bb66m" class="animable"></path><path d="M277.86,219.89a.79.79,0,0,1-.05-.22s0-.11,0-.17l-.11-.41a8,8,0,0,0-.29-.82c-.1-.27-.22-.53-.35-.8a5.69,5.69,0,0,0-.46-.74l-.06,0-.05,0-.06,0-.06,0c-4.19-.78-32.61-4.85-36.84-5.33S231,210.4,226.68,210a255.55,255.55,0,0,0-25.66-.93l-2.4.08a4.56,4.56,0,0,0-.53-.13c-.41-.1-.82-.2-1.23-.28-.77-.15-1.55-.26-2.33-.38-1.62-.25-3.24-.42-4.85-.72-.1,0-.14.13,0,.15,1.62.36,3.21.83,4.83,1.18l1.41.3c-3.14.16-6.27.4-9.41.69-.09,0-.1.16,0,.15,4.26-.25,8.56-.28,12.83-.21s8.47.17,12.7.41c8.56.49,17.11,1.26,25.64,2.15,4.78.5,33.77,4.73,38.57,4.93h.06a2.33,2.33,0,0,0,.14.33c.13.26.26.52.4.78s.27.48.43.72l.24.35.12.17a1.13,1.13,0,0,1,.12.18C277.75,220.06,277.92,220,277.86,219.89Z" style="fill: rgb(38, 50, 56); transform-origin: 232.156px 213.821px;" id="elkzoqosfixb" class="animable"></path><path d="M292,256.55c-1.54-2.45-2.84-5.06-4.24-7.59s-2.81-5.06-4.23-7.59c-2.81-5.05-12.91-22-13.91-23.22-.06-.08-.19,0-.16.1.48,1.31,6.78,12.55,8.23,15.06,2.91,5,5.95,9.93,9,14.88.86,1.41,1.75,2.81,2.62,4.22s1.79,2.78,2.59,4.23C291.94,256.72,292.08,256.64,292,256.55Z" style="fill: rgb(38, 50, 56); transform-origin: 280.74px 237.395px;" id="elqaglb4aydkg" class="animable"></path><path d="M269.37,222.37c-2.53-.6-5.11-1-7.66-1.48L254,219.45q-7.67-1.42-15.37-2.72c-10.24-1.73-20.52-3.16-30.85-4.15-5.84-.56-11.68-.93-17.53-1.36-.12,0-.12.19,0,.2,10.41.47,20.8,1.88,31.11,3.36s20.39,3.08,30.56,4.79l8.61,1.47c2.91.51,5.82,1.13,8.75,1.5C269.43,222.56,269.48,222.4,269.37,222.37Z" style="fill: rgb(38, 50, 56); transform-origin: 229.795px 216.881px;" id="eldstiocoo2qq" class="animable"></path><path d="M299.54,399.75c-2.46-.24-63.75-27.79-65.42-30.32-.64-.95,2.85-10.11,7.38-21.06,1-2.37,2-4.8,3.06-7.27,6.83-16,13.35-30.67,13.35-30.67l42.15,16.1L284.48,358.9,281.07,366s18.75,21.05,20.28,24S302,400,299.54,399.75Z" style="fill: rgb(255, 196, 192); transform-origin: 268.076px 355.093px;" id="elc0efrho2mzr" class="animable"></path><path d="M299.54,399.75c-2.46-.24-63.75-27.79-65.42-30.32-.77-1.17,4.54-14.44,10.44-28.33l39.92,17.8L281.07,366s18.75,21.05,20.28,24S302,400,299.54,399.75Z" style="fill: rgb(255, 255, 255); transform-origin: 268.076px 370.428px;" id="elval7jssee49" class="animable"></path><path d="M299.54,399.75c-2.46-.24-63.75-27.79-65.42-30.32-.64-.95,2.85-10.11,7.38-21.06L281.07,366s18.75,21.05,20.28,24S302,400,299.54,399.75Z" style="fill: rgb(166, 166, 166); transform-origin: 268.076px 374.063px;" id="el6mtsfgv5dpy" class="animable"></path><path d="M299.77,396.9c-10.16-4.87-51.6-23.55-62-27.59-.08,0-.11,0,0,.06,10,5.05,51.55,23.4,62,27.7C299.91,397.16,300,397,299.77,396.9Z" style="fill: rgb(38, 50, 56); transform-origin: 268.805px 383.203px;" id="eler30tj1mpar" class="animable"></path><path d="M298.4,386.05a9,9,0,0,0-7.27-.26,8.78,8.78,0,0,0-4.76,4.46c0,.06.09.11.12.05a10.47,10.47,0,0,1,11.86-4.12A.07.07,0,0,0,298.4,386.05Z" style="fill: rgb(38, 50, 56); transform-origin: 292.404px 387.737px;" id="ela1sw9a4gbn5" class="animable"></path><path d="M284.59,368.83c-4.08-1.91-9.5-2.6-13.57-.39-.16.09,0,.31.12.3a63,63,0,0,1,13.3.62A.28.28,0,0,0,284.59,368.83Z" style="fill: rgb(38, 50, 56); transform-origin: 277.849px 368.213px;" id="elr3bkubinaea" class="animable"></path><path d="M287.21,371.49c-4.08-1.9-9.5-2.6-13.57-.38-.16.08,0,.31.12.3a61.71,61.71,0,0,1,13.3.62A.28.28,0,0,0,287.21,371.49Z" style="fill: rgb(38, 50, 56); transform-origin: 280.494px 370.884px;" id="el9mgfktblxa" class="animable"></path><path d="M289.83,374.16c-4.09-1.91-9.51-2.6-13.57-.39-.16.09,0,.31.12.3a62.92,62.92,0,0,1,13.29.62A.28.28,0,0,0,289.83,374.16Z" style="fill: rgb(38, 50, 56); transform-origin: 283.091px 373.543px;" id="elg9q2d27e4za" class="animable"></path><path d="M292.45,376.82c-4.09-1.91-9.51-2.6-13.57-.38-.16.08,0,.31.11.3a61.68,61.68,0,0,1,13.3.62A.29.29,0,0,0,292.45,376.82Z" style="fill: rgb(38, 50, 56); transform-origin: 285.703px 376.208px;" id="elziq3i9jf6gj" class="animable"></path><path d="M244.76,360.73c-4.62-2.06-7.83,5.11-3.21,7.18S249.38,362.79,244.76,360.73Z" style="fill: rgb(38, 50, 56); transform-origin: 243.155px 364.321px;" id="eluy6upigj51i" class="animable"></path><path d="M294,359.85c-1.31-2.66-4.69-2.15-6.77-.94a23.71,23.71,0,0,0-8.47,8.84.12.12,0,0,0,.08.17.55.55,0,0,0,.59.67c3.84-.71,8-1,11.53-2.86C293,364.64,295.2,362.37,294,359.85Zm-9,6.47c-1.88.4-3.77.7-5.63,1.16a70.76,70.76,0,0,1,5.05-5.05,26.63,26.63,0,0,1,2.75-2.1c1.51-.95,7.09-2.58,5.48,2.08C291.77,365,287.24,365.85,285,366.32Z" style="fill: rgb(38, 50, 56); transform-origin: 286.544px 363.258px;" id="eljm1ekku31r" class="animable"></path><path d="M267.83,364.68c3.33,2.16,7.49,2.8,11.25,3.84a.55.55,0,0,0,.64-.61.11.11,0,0,0,.09-.17,23.62,23.62,0,0,0-7.67-9.53c-2-1.39-5.3-2.19-6.83.35S265.89,363.42,267.83,364.68Zm-1.43-3.45c-1.2-4.78,4.23-2.69,5.64-1.61A25.73,25.73,0,0,1,274.6,362a68.59,68.59,0,0,1,4.6,5.47c-1.81-.62-3.67-1.09-5.51-1.64C271.5,365.12,267.06,363.86,266.4,361.23Z" style="fill: rgb(38, 50, 56); transform-origin: 272.306px 362.717px;" id="el4mtabv0knaq" class="animable"></path><path d="M245.5,337.34l46.17,20.87S345.52,254.94,347,222.66c1.23-27.48-17.9-38.08-79.74-20.31l-15.15.19V213c6.65.88,24.39,3.67,24.39,3.67,12.91,4.87,17.07,6.88,16.86,7.3C261.12,289,245.5,337.34,245.5,337.34Z" style="fill: rgb(55, 71, 79); transform-origin: 296.278px 275.91px;" id="el2itw44z397l" class="animable"></path><path d="M300.87,212.37c-1.86,2.48-3.59,5.07-5.24,7.7a111.14,111.14,0,0,0-31.45-8.29c-3-.37-6.1-.64-9.15-.81-.13,0-.12.18,0,.19a138.54,138.54,0,0,1,32,6.09c2.87.89,5.69,1.92,8.53,2.93-2,3.17-3.85,6.42-5.65,9.69a192.56,192.56,0,0,0-9,18.84c-1.49,3.57-2.93,7.16-4.21,10.8,0,.11.14.17.18.07q8.46-18.85,18.47-36.92c1.89-3.4,3.85-6.75,5.69-10.18C301.09,212.39,300.94,212.27,300.87,212.37Z" style="fill: rgb(38, 50, 56); transform-origin: 277.993px 235.3px;" id="el8jgyum0fynp" class="animable"></path><path d="M292.67,347.05c-2.69-1-5.3-2.36-7.93-3.54L276.81,340c-5.28-2.36-23.53-9.93-25-10.28-.1,0-.15.12-.07.17,1.17.77,12.94,6,15.61,7.15,5.32,2.28,10.71,4.39,16.08,6.56,1.53.62,3.08,1.21,4.62,1.81s3.1,1.16,4.61,1.84C292.71,347.24,292.77,347.09,292.67,347.05Z" style="fill: rgb(38, 50, 56); transform-origin: 272.212px 338.485px;" id="elgiaxq63gp1n" class="animable"></path><path d="M300.65,217.13c-3.65,6.92-6.75,14.16-9.92,21.32s-6.21,14.28-9.19,21.48q-8.88,21.49-16.55,43.48c-2.9,8.29-4.51,14.43-7.16,22.8a.1.1,0,0,0,.19.05c4.9-14.8,9.09-27.27,14.62-41.84s11.39-29,17.59-43.2q2.61-6,5.31-12c1.8-4,3.67-7.94,5.35-12C301,217.1,300.73,217,300.65,217.13Z" style="fill: rgb(38, 50, 56); transform-origin: 279.373px 271.693px;" id="elz9vpjs5dp4" class="animable"></path><path d="M218.09,141.68a.49.49,0,0,0,.49.42l2-.28c.8-4.94,1.93-9,1.73-7.44a23.91,23.91,0,0,0,.22,7.16l3.91-.62c-.16-8.37.55-14.75.81-12.88,1.06,7.53,2,9.83,3,12.27,9.43-1.51,21.78-3.63,30.67-5.36.09-4.66,0-9.67.2-9.36,1.74,2.26,2.83,5.84,3.44,8.65,2.83-.57,5.08-1.08,6.43-1.46,0,0-.12-3.88-.28-5.13a26.37,26.37,0,0,0-2.95-9.17,47.16,47.16,0,0,0-5.92-7.84l-.05-.06s0,0,0,0a26.86,26.86,0,0,1-3.57-5.31l0,0a26.09,26.09,0,0,1-1.66-4.31c-1.56-5.41-5.65-9.52-11.12-9.89-11.67-7.16-20.64-1.26-22.12,6.4-.14.75-.26,1.6-.34,2.51v0c-.33,3.38-.37,7.69-.53,11a0,0,0,0,1,0,0s0,0,0,0h0a31.14,31.14,0,0,1-.39,3.92C220.78,121.24,215.83,125.67,218.09,141.68Z" style="fill: rgb(38, 50, 56); transform-origin: 244.248px 114.969px;" id="el6ud22bso46f" class="animable"></path><path d="M248,92.05a10.61,10.61,0,0,1,7.74,7.11,27.49,27.49,0,0,0,2.79,6.55,24.7,24.7,0,0,0,5.16,5.2c3,2.47,5.3,5.07,6.49,8.93a30.73,30.73,0,0,1,1.44,12.69s0,0,0,0a32.87,32.87,0,0,0-2.27-13.08c-1.65-4.2-4.68-6.42-7.9-9.21a18.59,18.59,0,0,1-5.56-8.11c-.67-1.93-1.07-4-2.25-5.7-1.42-2-3.62-3.06-5.77-3.92A.24.24,0,0,1,248,92.05Z" style="fill: rgb(38, 50, 56); transform-origin: 259.739px 112.288px;" id="elaw5f4fjs4h4" class="animable"></path><path d="M217.65,122.32c1.74-3.61,3.68-6.79,4.27-10.95.54-3.79.5-7.66,1.06-11.45,0-.06.1-.06.09,0-.7,6.66.23,13-2.7,19.15-1.6,3.31-3.24,6.41-4,10.13a31.13,31.13,0,0,0,.09,11.78.1.1,0,1,1-.2,0A25.83,25.83,0,0,1,217.65,122.32Z" style="fill: rgb(38, 50, 56); transform-origin: 219.103px 120.478px;" id="elv3j2696jjn" class="animable"></path><path d="M244.7,91.05c-1.49.13-6.08-6.36-3-12s10.82-4.6,11.1,2.39C252.94,85.9,247.86,90.76,244.7,91.05Z" style="fill: rgb(38, 50, 56); transform-origin: 246.731px 83.2368px;" id="elh57wsg4s9n" class="animable"></path><path d="M248,75.57a8.73,8.73,0,0,1,4.83,3.19,5.31,5.31,0,0,1,.77,5.23A10.69,10.69,0,0,1,250,88.46a16.33,16.33,0,0,1-2.5,1.6,8.25,8.25,0,0,1-2.82,1,7.07,7.07,0,0,0,3-.49,12.9,12.9,0,0,0,2.78-1.39,10.24,10.24,0,0,0,4.07-4.78,6.06,6.06,0,0,0,.32-3.27,6.2,6.2,0,0,0-1.46-2.9A7.7,7.7,0,0,0,248,75.57Z" style="fill: rgb(38, 50, 56); transform-origin: 249.812px 83.3203px;" id="eljv8lx1gqihp" class="animable"></path><path d="M234,132.11c-24.84,12.84-48.17,28.47-52.57,39.35-2.76,6.84.6,19.27,3.36,26.75,1.34,3.64,34.48-8.75,31.64-11.77-7-7.47-7-12.16-6.19-13.67.48-1,27.68-24.47,35.33-35.08C256.24,122.91,244.9,126.5,234,132.11Z" style="fill: rgb(255, 196, 192); transform-origin: 215.125px 163.054px;" id="eljxbpmnoyhln" class="animable"></path><path d="M224.49,223.89c-3.52,1.19-5.72-7.73-5.72-7.73A6.88,6.88,0,0,1,216.1,220c-2.37,1.52-5.8-1.55-5.8-1.55a8.46,8.46,0,0,1-3.46,3.59c-2.42,1.23-6.32-1.37-6.32-1.37a7.39,7.39,0,0,1-5,1.24c-4.71-.73-7.57-7.41-9.44-11.64s-3.18-18-3.7-20.57l27-12.19s13.75,16.59,15.24,21.87C225.9,203.83,229.87,222.07,224.49,223.89Z" style="fill: rgb(255, 196, 192); transform-origin: 204.807px 200.755px;" id="elczqkdm4weci" class="animable"></path><path d="M218.84,216.05c-.19-5.05-1.59-10.05-3-14.85a.09.09,0,0,0-.17.05c1.46,4.76,1.67,10,2.94,14.84A.12.12,0,0,0,218.84,216.05Z" style="fill: rgb(38, 50, 56); transform-origin: 217.255px 208.656px;" id="ell650waa74sp" class="animable"></path><path d="M210.61,218.2a13.24,13.24,0,0,0-.9-3.33c-.41-1.15-.83-2.3-1.27-3.44-.88-2.28-1.81-4.55-2.8-6.78,0-.1-.21-.05-.17,0,.87,2.28,1.71,4.57,2.49,6.88.38,1.15.76,2.31,1.13,3.48a15.85,15.85,0,0,0,1.2,3.23A.17.17,0,0,0,210.61,218.2Z" style="fill: rgb(38, 50, 56); transform-origin: 208.037px 211.464px;" id="el81x8kuzoy67" class="animable"></path><path d="M200.49,220.56a9.32,9.32,0,0,0-1-2.95c-.42-1-.84-2.06-1.25-3.1-.82-2.07-1.64-4.14-2.39-6.24a.08.08,0,1,0-.16,0c.75,2.13,1.47,4.28,2.23,6.41.38,1.05.76,2.09,1.15,3.13a8.78,8.78,0,0,0,1.29,2.75A.07.07,0,0,0,200.49,220.56Z" style="fill: rgb(38, 50, 56); transform-origin: 198.09px 214.397px;" id="elb3s3cgqtg4w" class="animable"></path><path d="M198.15,151.35l18.13,17.86s23.94-21.1,30.88-32.61,1.82-12.59-12-6.06S198.15,151.35,198.15,151.35Z" style="fill: rgb(240, 128, 128); transform-origin: 224.195px 147.874px;" id="elmmbd2r93ll" class="animable"></path><path d="M198.15,151.35l18.13,17.86s23.94-21.1,30.88-32.61,1.82-12.59-12-6.06S198.15,151.35,198.15,151.35Z" style="fill: rgb(240, 128, 128); transform-origin: 224.195px 147.874px;" id="elshizvdkz84i" class="animable"></path><path d="M233.94,137.24a2.2,2.2,0,1,1-2.2-2.2A2.19,2.19,0,0,1,233.94,137.24Zm-22.15,26a2.1,2.1,0,0,0-1.22.38l3.07,3a2.15,2.15,0,0,0,.36-1.2A2.21,2.21,0,0,0,211.79,163.2Zm-10-13.79a2.38,2.38,0,0,0-.65.1l-.89.54h0a2.18,2.18,0,0,0-.65,1.55,2.2,2.2,0,1,0,2.2-2.2Zm20,0a2.2,2.2,0,1,0,2.2,2.2A2.2,2.2,0,0,0,221.77,149.41Z" style="fill: rgb(255, 255, 255); transform-origin: 216.77px 150.83px;" id="el35mle14pusv" class="animable"></path><path d="M220.06,164.56a182.94,182.94,0,0,1-16-16c-.06-.07.06-.17.12-.1,1.35,1.48,9.74,9.22,16,16C220.27,164.53,220.15,164.63,220.06,164.56Z" style="fill: rgb(38, 50, 56); transform-origin: 212.128px 156.51px;" id="el48fjd69y31v" class="animable"></path><g id="elt5c704yn1cj"><path d="M247.15,136.6c-6.94,11.51-30.87,32.6-30.87,32.6l-9-8.87,42.64-32.71C250.78,129.06,249.94,132,247.15,136.6Z" style="opacity: 0.1; transform-origin: 228.761px 148.41px;" class="animable"></path></g><path d="M225.71,199.79l2.9-24.83s-8.24-11.37-4.6-19c1.84-3.84,14.52-23.25,21.18-27.94,6.24-4.4,13.41,1.22,16.7,4.78,12.67,13.72,19.14,31,25.09,66.32Z" style="fill: rgb(255, 196, 192); transform-origin: 255.031px 163.099px;" id="el9luj93b84ut" class="animable"></path><path d="M224.06,188.09,228.61,175s-8.24-11.37-4.6-19c1.84-3.84,14.52-23.25,21.18-27.94,6.24-4.4,15.27.41,18.43,4.09,10.9,12.69,15.26,24.38,24,57.9Z" style="fill: rgb(240, 128, 128); transform-origin: 255.351px 158.176px;" id="elgna2dr4st2q" class="animable"></path><path d="M253.89,137.24a2.21,2.21,0,1,1-2.2-2.2A2.2,2.2,0,0,1,253.89,137.24Zm-22.15,26a2.2,2.2,0,1,0,2.2,2.2A2.2,2.2,0,0,0,231.74,163.2Zm19.95,0a2.2,2.2,0,1,0,2.2,2.2A2.21,2.21,0,0,0,251.69,163.2Zm19.94,0a2.2,2.2,0,1,0,2.2,2.2A2.21,2.21,0,0,0,271.63,163.2Zm-29.92-13.79a2.2,2.2,0,1,0,2.2,2.2A2.21,2.21,0,0,0,241.71,149.41Zm20,0a2.2,2.2,0,1,0,2.2,2.2A2.2,2.2,0,0,0,261.66,149.41Zm-20,28.16a2.21,2.21,0,1,0,2.2,2.2A2.21,2.21,0,0,0,241.71,177.57Zm20,0a2.21,2.21,0,1,0,2.2,2.2A2.2,2.2,0,0,0,261.66,177.57Zm19.94,0a2.21,2.21,0,1,0,2.21,2.2A2.21,2.21,0,0,0,281.6,177.57Z" style="fill: rgb(255, 255, 255); transform-origin: 256.7px 158.535px;" id="el8tm1h0jp2ck" class="animable"></path><path d="M248.11,174.92a52.48,52.48,0,0,0-7.93-.14c-1.31.1-2.61.25-3.92.43-.65.09-1.3.16-1.95.23a8.79,8.79,0,0,1-2.05,0,0,0,0,0,0,0,.09,12.59,12.59,0,0,0,1.92.31,13.25,13.25,0,0,0,1.89,0c1.33-.08,2.66-.22,4-.32,2.68-.19,5.37-.39,8.06-.38A.11.11,0,0,0,248.11,174.92Z" style="fill: rgb(38, 50, 56); transform-origin: 240.245px 175.283px;" id="eljzc3tv58fg" class="animable"></path><path d="M254.11,178.38a58.38,58.38,0,0,0-6.38-1.48c-1.08-.18-2.16-.3-3.25-.39-.52,0-1-.08-1.56-.11s-1.15,0-1.73,0c-.06,0-.07.09,0,.09.54.06,1.07.2,1.6.28l1.62.25c1.07.17,2.15.35,3.23.51,2.15.32,4.3.65,6.45,1.05C254.19,178.58,254.21,178.41,254.11,178.38Z" style="fill: rgb(38, 50, 56); transform-origin: 247.658px 177.483px;" id="elrzfah21wt4d" class="animable"></path><path d="M263.37,131.51c31.3,22,58.76,53,56.55,63.14-2.34,10.75-23.07,23.38-41.64,26.42-3.8.62-16.53-27-12.66-28.42,3-1.1,16.75-5.49,18.35-7.45,1.1-1.35-21.39-30.92-28.91-46.49C247.2,122.42,255,125.63,263.37,131.51Z" style="fill: rgb(255, 196, 192); transform-origin: 285.925px 173.904px;" id="eleeod78mfajn" class="animable"></path><path d="M273.47,191.55l-19.29,3.51c-4.22.77-8.13,1.14-11.24,2.66-6.46,3.16-22.91,19.5-19.33,23.42,3.23,3.55,7.75-2.38,7.75-2.38s-5.55,6-1.25,8.56,9.46-5.75,9.46-5.75-6.33,6-1.49,8.26c4.2,2,11.15-7,11.15-7s-7.34,5.56-3.23,8c4.54,2.7,16.64-9.37,16.64-9.37,10,.79,16.13-.09,23.1-2.29C287,218.81,273.47,191.55,273.47,191.55Z" style="fill: rgb(255, 196, 192); transform-origin: 254.465px 211.387px;" id="el8vrzyaz7er" class="animable"></path><path d="M237.88,223.58l1.31-1.89a37.62,37.62,0,0,1,2.68-3.59c.95-1.1,2-2.15,3-3.18s2.31-2,3.37-3.16a.09.09,0,1,1,.12.12,40.91,40.91,0,0,0-3,3.43c-1,1.14-1.9,2.29-2.85,3.45s-1.91,2.18-2.86,3.28c-.48.55-.93,1.12-1.38,1.69a12.6,12.6,0,0,1-1.32,1.6c-.05,0-.12,0-.1-.08A9.92,9.92,0,0,1,237.88,223.58Z" style="fill: rgb(38, 50, 56); transform-origin: 242.629px 218.519px;" id="elf2l0js5g2kj" class="animable"></path><path d="M230.23,220a59.77,59.77,0,0,1,4.82-6.78,41.51,41.51,0,0,1,6-5.81c.07-.06.18.05.12.13-1.79,2.13-3.61,4.24-5.43,6.35-.89,1-4.78,5.83-5.25,6.29C230.34,220.32,230.17,220.16,230.23,220Z" style="fill: rgb(38, 50, 56); transform-origin: 235.702px 213.813px;" id="elpf6cij6wzdj" class="animable"></path><path d="M245,227.1a57.77,57.77,0,0,1,4.65-6.28,52.82,52.82,0,0,1,6.1-5.18c.08,0,.18.06.12.13-1.9,1.87-3.82,3.7-5.62,5.66-.88,1-4.16,5-5.08,5.81C245.07,227.31,244.93,227.2,245,227.1Z" style="fill: rgb(38, 50, 56); transform-origin: 250.435px 221.451px;" id="elhre6y3c92j9" class="animable"></path><path d="M239.86,199.64a14.77,14.77,0,0,1,2.81-1.87,22,22,0,0,1,3.11-1.35,65.63,65.63,0,0,1,6.54-1.73q3.28-.72,6.6-1.32c2.2-.4,4.41-.77,6.64-1.09h-.07l4.25-1.34c1.43-.41,2.84-.87,4.29-1.23l-4.13,1.68L265.75,193h-.06c-4.39.91-8.79,1.72-13.19,2.57-2.19.44-4.41.8-6.54,1.37A22.24,22.24,0,0,0,239.86,199.64Z" style="fill: rgb(38, 50, 56); transform-origin: 256.945px 194.675px;" id="elrloybk1ojqp" class="animable"></path><path d="M298.26,158.71l-22.77,15.84s-18.13-26.16-23-38.68.33-12.71,12.84-3.94S298.26,158.71,298.26,158.71Z" style="fill: rgb(240, 128, 128); transform-origin: 274.471px 150.195px;" id="elxao0e5r2s0d" class="animable"></path><path d="M253.89,137.24a2.08,2.08,0,0,1-.34,1.16c-.41-.89-.77-1.74-1.08-2.53l-.29-.78A2.21,2.21,0,0,1,253.89,137.24Zm16.35-1.7a2.16,2.16,0,0,0-.81,1.7,2.2,2.2,0,0,0,4.2.92C272.48,137.26,271.35,136.38,270.24,135.54Zm1.39,27.66a2.2,2.2,0,1,0,2.2,2.2A2.21,2.21,0,0,0,271.63,163.2Zm19.95,0a2.19,2.19,0,0,0-2.12,1.63l2.33-1.62Zm-29.92-13.79a2.14,2.14,0,0,0-1.74.87c.68,1.17,1.38,2.34,2.09,3.51a2.2,2.2,0,0,0-.35-4.38Zm19.94,0a2.2,2.2,0,1,0,2.21,2.2A2.21,2.21,0,0,0,281.6,149.41Z" style="fill: rgb(255, 255, 255); transform-origin: 271.985px 151.345px;" id="elfo8zmwceje" class="animable"></path><path d="M292.87,155.54a189.31,189.31,0,0,1-18.95,13.7c-.08.06-.16-.07-.08-.13,1.73-1.13,11-8.42,18.94-13.71C292.87,155.34,293,155.47,292.87,155.54Z" style="fill: rgb(38, 50, 56); transform-origin: 283.366px 162.32px;" id="elw5dyo0tp22" class="animable"></path><path d="M277,173.47a11.84,11.84,0,0,0-1.39.78c-2.73-4.38-5.67-8.81-8.44-13.17l-4.08-6.4c-1.41-2.22-2.7-4.55-4.23-6.69a.06.06,0,0,0-.1.06c1,2.14,2.2,4.18,3.38,6.22-.25-.31-.49-.63-.75-.92-.6-.67-1.18-1.33-1.72-2-.09-.11-.27,0-.19.11.52.68,1,1.38,1.45,2.09s1,1.4,1.48,2.08,1,1.27,1.57,1.89c.07.08.13.16.2.23.75,1.28,1.48,2.56,2.26,3.82,2.74,4.41,8.91,13.26,9,13.23a12.24,12.24,0,0,0,1.64-1.17C277.09,173.54,277,173.45,277,173.47Z" style="fill: rgb(38, 50, 56); transform-origin: 267.919px 161.386px;" id="eliwjxzueehn" class="animable"></path><path d="M255.15,127.66c0,1.09-5.86,9.47-10.6,10.42-1.55.31-1-8.54-1-8.54l-.3-.59-4.1-8.15,8.52-9.06,1.25-1.23s1,2.3,2.16,5.19c.06.13.11.26.17.41s.14.31.2.46c.18.43.37.87.54,1.31s.27.66.4,1,.26.7.4,1A58.6,58.6,0,0,1,255.15,127.66Z" style="fill: rgb(255, 196, 192); transform-origin: 247.15px 124.299px;" id="elf0cafsq13t" class="animable"></path><path d="M251.12,115.7A18.26,18.26,0,0,1,243.29,129l-4.1-8.15,8.52-9.06,1.25-1.23S249.94,112.81,251.12,115.7Z" style="fill: rgb(38, 50, 56); transform-origin: 245.155px 119.78px;" id="elaeae1cfrxhn" class="animable"></path><path d="M223.85,110.89c2.31,15.85,12.06,16.26,15.48,15.76,3.1-.45,13.61-2.39,13-18.4s-8.75-20-15.9-19.29S221.55,95,223.85,110.89Z" style="fill: rgb(255, 196, 192); transform-origin: 237.896px 107.825px;" id="elkqeg696ow3" class="animable"></path><path d="M226.16,109.43a10.2,10.2,0,0,0,1-.45,1.85,1.85,0,0,0,.94-.65.57.57,0,0,0-.15-.68,1.41,1.41,0,0,0-1.43,0,2.13,2.13,0,0,0-1.12,1A.61.61,0,0,0,226.16,109.43Z" style="fill: rgb(38, 50, 56); transform-origin: 226.761px 108.457px;" id="elvf46e08izhi" class="animable"></path><path d="M236,107.16a8.22,8.22,0,0,1-1.11,0,1.78,1.78,0,0,1-1.13-.21.58.58,0,0,1-.14-.68,1.4,1.4,0,0,1,1.29-.61,2.09,2.09,0,0,1,1.43.44A.61.61,0,0,1,236,107.16Z" style="fill: rgb(38, 50, 56); transform-origin: 235.054px 106.416px;" id="elow0cpxxyonl" class="animable"></path><path d="M234.62,111.6s.1,0,.1.08c.17,1.08.55,2.28,1.59,2.46,0,0,0,.06,0,.06C235.09,114.26,234.61,112.65,234.62,111.6Z" style="fill: rgb(38, 50, 56); transform-origin: 235.465px 112.901px;" id="el8geomknfin9" class="animable"></path><path d="M235.37,110.3c1.7-.46,2.49,3,.91,3.4S233.94,110.68,235.37,110.3Z" style="fill: rgb(38, 50, 56); transform-origin: 235.874px 111.995px;" id="eln4iec4jm0v" class="animable"></path><path d="M236.09,110.33c.34.12.71.4,1.08.35s.66-.49.86-.9c0,0,.05,0,.06,0a1.28,1.28,0,0,1-.61,1.65c-.63.24-1.22-.24-1.54-.86C235.88,110.48,236,110.27,236.09,110.33Z" style="fill: rgb(38, 50, 56); transform-origin: 237.058px 110.636px;" id="elpxez84t15mr" class="animable"></path><path d="M229,112.74s-.07.07-.06.12c.29,1,.44,2.31-.43,2.89,0,0,0,.07,0,0C229.64,115.36,229.42,113.7,229,112.74Z" style="fill: rgb(38, 50, 56); transform-origin: 228.925px 114.261px;" id="eldkopf9fqlv" class="animable"></path><path d="M227.77,111.86c-1.74.28-1.05,3.73.56,3.48S229.23,111.63,227.77,111.86Z" style="fill: rgb(38, 50, 56); transform-origin: 228px 113.601px;" id="elq92jww9m9e" class="animable"></path><path d="M227.1,112.23c-.24.24-.45.62-.77.71s-.72-.22-1-.53c0,0,0,0,0,0,.11.66.46,1.31,1.12,1.31s.92-.65.95-1.34C227.32,112.3,227.19,112.14,227.1,112.23Z" style="fill: rgb(38, 50, 56); transform-origin: 226.365px 112.962px;" id="elro9w3v03pv" class="animable"></path><path d="M236.8,120.22c-.19.32-.34.73-.72.86a2.7,2.7,0,0,1-1.2,0s-.06.05,0,.07a1.46,1.46,0,0,0,1.49.2,1.16,1.16,0,0,0,.57-1.16C236.91,120.18,236.82,120.18,236.8,120.22Z" style="fill: rgb(38, 50, 56); transform-origin: 235.902px 120.827px;" id="el5bhiru2vt8i" class="animable"></path><path d="M231.5,117.34s.13,1.64.29,2.39c0,.07.2.06.46,0,0,0,0,0,0,0a3.67,3.67,0,0,0,3.18-2.09.08.08,0,0,0-.14-.08,5.46,5.46,0,0,1-3,1.64c-.1-.19-.13-2.81-.25-2.8a6.9,6.9,0,0,0-1.62.76c-.36-3.41-.17-6.85-.59-10.24a.1.1,0,0,0-.2,0,55.84,55.84,0,0,0,.16,11C229.8,118.43,231.23,117.53,231.5,117.34Z" style="fill: rgb(38, 50, 56); transform-origin: 232.437px 113.299px;" id="ele17odx9hppq" class="animable"></path><path d="M232.67,119.24a3.92,3.92,0,0,0,1.76.93,1.74,1.74,0,0,0,1.07-.11c.73-.34.63-1,.38-1.62a4.36,4.36,0,0,0-.5-.87A5.08,5.08,0,0,1,232.67,119.24Z" style="fill: rgb(38, 50, 56); transform-origin: 234.368px 118.889px;" id="elsomaipirls" class="animable"></path><path d="M234.43,120.17a1.74,1.74,0,0,0,1.07-.11c.73-.34.63-1,.38-1.62A1.82,1.82,0,0,0,234.43,120.17Z" style="fill: rgb(255, 156, 189); transform-origin: 235.248px 119.324px;" id="eldq7er2wvuif" class="animable"></path><path d="M252.35,107.73c-2.44,1.09-4.89-4-4.89-4s-5.1,1.84-9.4-4.9a12,12,0,0,0,4.42,5.26s-9.34,2.25-15.81-3.93c0,0,2.88,3.3,4.78,4.16a11.19,11.19,0,0,1-7.08-2.12s0,4.9-.81,6.54c0,0-5.23-15.88,9.95-19.4,0,0,9.35-2.65,15.2,3.42S252.35,107.73,252.35,107.73Z" style="fill: rgb(38, 50, 56); transform-origin: 237.724px 98.7521px;" id="el69fx1gnj1mp" class="animable"></path><path d="M237.76,116a5.34,5.34,0,0,1-5.45-5.22h0a5.34,5.34,0,1,1,6.76,5A5.18,5.18,0,0,1,237.76,116ZM233,110.76a4.64,4.64,0,1,0,3.39-4.56A4.64,4.64,0,0,0,233,110.76Z" style="fill: rgb(219, 219, 219); transform-origin: 237.648px 110.647px;" id="el6d36jg62kmp" class="animable"></path><path d="M226.62,117.69c-2.17.33-4.29-1.76-4.74-4.67a6.3,6.3,0,0,1,.54-3.86,3.32,3.32,0,0,1,5.62-.87,6.41,6.41,0,0,1,1.69,3.51c.42,2.75-.8,5.27-2.77,5.81Zm-3.57-8.2a5.71,5.71,0,0,0-.47,3.42c.39,2.52,2.15,4.35,3.93,4.07s2.9-2.55,2.51-5.07a5.67,5.67,0,0,0-1.48-3.12,2.87,2.87,0,0,0-2.45-1l-.26.06A3,3,0,0,0,223.05,109.49Z" style="fill: rgb(219, 219, 219); transform-origin: 225.798px 112.411px;" id="elo049u9oormr" class="animable"></path><path d="M232.58,111.35l.37-.61c-.9-.54-2.89-1.16-4,.42l.59.4C230.53,110.14,232.5,111.3,232.58,111.35Z" style="fill: rgb(219, 219, 219); transform-origin: 230.95px 110.857px;" id="elv4mgbgjoyqh" class="animable"></path><path d="M255.28,109.42l.57-.42c-.19-.27-2-2.62-3.57-2.64s-9.81,2-10.21,2.09l.18.7a93,93,0,0,1,10-2.07C253.34,107.09,254.8,108.77,255.28,109.42Z" style="fill: rgb(219, 219, 219); transform-origin: 248.96px 107.89px;" id="eldm1m4p7qnlm" class="animable"></path><path d="M249.2,109.21s2.26-5.67,4.75-5,1.59,8.35-.77,9.93a2.72,2.72,0,0,1-3.87-.59Z" style="fill: rgb(255, 196, 192); transform-origin: 252.318px 109.426px;" id="elbzj6rkhkncd" class="animable"></path><path d="M253.64,106.43s.06,0,0,.06c-1.65,1.17-2.21,3.08-2.47,5a1.5,1.5,0,0,1,2.09-.91.06.06,0,0,1,0,.11,1.66,1.66,0,0,0-1.65,1,7.82,7.82,0,0,0-.52,1.64c0,.19-.36.17-.34,0v0C250.16,110.91,251.2,107.25,253.64,106.43Z" style="fill: rgb(38, 50, 56); transform-origin: 252.128px 109.948px;" id="elbk6004t2ltv" class="animable"></path><g id="elgh1td8r09hc"><rect x="234.57" y="195.76" width="3.06" height="68.26" style="fill: rgb(219, 219, 219); transform-origin: 236.1px 229.89px; transform: rotate(-89.86deg);" class="animable"></rect></g><polygon points="201.97 228.28 201.96 231.34 248.37 231.45 246.03 228.39 201.97 228.28" style="fill: rgb(166, 166, 166); transform-origin: 225.165px 229.865px;" id="elvircgrxfzgn" class="animable"></polygon><polygon points="243.08 231.44 176.55 231.28 171.12 186.08 237.65 186.24 243.08 231.44" style="fill: rgb(219, 219, 219); transform-origin: 207.1px 208.76px;" id="elq3l6norco" class="animable"></polygon><path d="M211.15,208.77a4,4,0,0,1-4,4,4.15,4.15,0,0,1-4.11-4.06,4,4,0,0,1,4-4A4.13,4.13,0,0,1,211.15,208.77Z" style="fill: rgb(255, 255, 255); transform-origin: 207.095px 208.74px;" id="eli85doiqypqb" class="animable"></path></g><g id="freepik--speech-bubble--inject-753" class="animable" style="transform-origin: 204.362px 68.4779px;"><path d="M178.62,71a23.4,23.4,0,0,0,39.1,14.8l11.71,1.72-5.86-10.12A23.4,23.4,0,1,0,178.62,71Z" style="fill: rgb(255, 255, 255); transform-origin: 203.962px 68.5736px;" id="elq720skqhijk" class="animable"></path><path d="M185.62,51.62a24,24,0,0,1,9-5.53A23.66,23.66,0,0,1,224,77.52l0-.4,5.83,10.14.43.75-.85-.13-11.7-1.8L218,86a23.65,23.65,0,0,1-11.58,5.72,20.69,20.69,0,0,1-3.24.33,22,22,0,0,1-3.25-.06,23.73,23.73,0,0,1-11.95-4.64,28.85,28.85,0,0,1-2.47-2.1,27.45,27.45,0,0,1-2.12-2.44,23.55,23.55,0,0,1,2.28-31.19Zm-2.21,31.14a27.11,27.11,0,0,0,2.13,2.42A28.37,28.37,0,0,0,188,87.24a21.88,21.88,0,0,0,5.65,3,23.09,23.09,0,0,0,6.25,1.38,21.36,21.36,0,0,0,3.2,0,20,20,0,0,0,3.18-.38,23.07,23.07,0,0,0,11.2-5.78l.12-.1.16,0,11.72,1.64-.42.62-5.89-10.1-.11-.2.08-.2A23.39,23.39,0,0,0,224.8,67a23.13,23.13,0,0,0-3-9.9,24,24,0,0,0-7-7.64,23,23,0,0,0-9.66-3.82,23.14,23.14,0,0,0-21.75,37.14Z" style="fill: rgb(38, 50, 56); transform-origin: 204.362px 68.4779px;" id="elbp6dj0x3bvl" class="animable"></path><g id="freepik--xsrjP0--inject-753" class="animable" style="transform-origin: 202.058px 67.0526px;"><path d="M199.33,77.29c-.53-.33-1-.81-1.71-.74-.27,0-.21-.2-.21-.35l0-8c0-.19,0-.35.22-.46,2-1,2.92-3.07,4.16-4.8a8,8,0,0,0,1.46-6.07c-.09-.61.19-.88.74-1a1.34,1.34,0,0,1,1.52.47,10.73,10.73,0,0,1,1.18,3.5,12.77,12.77,0,0,1-.36,3c-.09.73-.26,1.46-.4,2.2.18.13.39.07.58.07l6.78,0c1,0,1.42.27,1.55.9a1.81,1.81,0,0,1-1,2c-.17.08-.48,0-.5.27s.3.24.45.35c.82.56.67,1.72-.27,2.39-.23.16-.67.09-.68.42s.41.26.6.45a1.52,1.52,0,0,1-.65,2.36c-.12.07-.28.08-.39.16s-.23.16,0,.31a1.33,1.33,0,0,1,0,2.38l-.29.22a1.92,1.92,0,0,1-1.19.26l-10.63,0A1.26,1.26,0,0,1,199.33,77.29Z" style="fill: rgb(240, 128, 128); fill-rule: evenodd; transform-origin: 206.141px 66.6932px;" id="eluyun91tmuri" class="animable"></path><path d="M189.24,72.61c0-1.7,0-3.4,0-5.1,0-.34,0-.51.45-.51q3.12,0,6.22,0c.41,0,.47.14.47.5q0,5.13,0,10.25c0,.44-.12.56-.56.56-2,0-4,0-6,0-.5,0-.57-.16-.57-.6C189.27,76,189.25,74.31,189.24,72.61Z" style="fill: rgb(240, 128, 128); fill-rule: evenodd; transform-origin: 192.81px 72.655px;" id="eli8sagceuslb" class="animable"></path></g></g><defs>     <filter id="active" height="200%">         <feMorphology in="SourceAlpha" result="DILATED" operator="dilate" radius="2"></feMorphology>                <feFlood flood-color="#32DFEC" flood-opacity="1" result="PINK"></feFlood>        <feComposite in="PINK" in2="DILATED" operator="in" result="OUTLINE"></feComposite>        <feMerge>            <feMergeNode in="OUTLINE"></feMergeNode>            <feMergeNode in="SourceGraphic"></feMergeNode>        </feMerge>    </filter>    <filter id="hover" height="200%">        <feMorphology in="SourceAlpha" result="DILATED" operator="dilate" radius="2"></feMorphology>                <feFlood flood-color="#ff0000" flood-opacity="0.5" result="PINK"></feFlood>        <feComposite in="PINK" in2="DILATED" operator="in" result="OUTLINE"></feComposite>        <feMerge>            <feMergeNode in="OUTLINE"></feMergeNode>            <feMergeNode in="SourceGraphic"></feMergeNode>        </feMerge>            <feColorMatrix type="matrix" values="0   0   0   0   0                0   1   0   0   0                0   0   0   0   0                0   0   0   1   0 "></feColorMatrix>    </filter></defs></svg>